<?xml version="1.0" encoding="utf-8"?><svg xmlns="http://www.w3.org/2000/svg" xmlns:xlink="http://www.w3.org/1999/xlink"><symbol viewBox="0 0 10 19" id="icon-facebook" xmlns="http://www.w3.org/2000/svg"><path d="M9.766.157v2.946H8.014c-.64 0-1.071.134-1.295.402-.223.268-.335.67-.335 1.205v2.11h3.27l-.435 3.303H6.384v8.471H2.97v-8.47H.123V6.82H2.97V4.387c0-1.384.387-2.457 1.161-3.22C4.904.404 5.934.023 7.222.023c1.093 0 1.941.045 2.544.134z" fill-rule="evenodd"/></symbol><symbol viewBox="0 0 189.473 189.473" id="icon-telegram" xmlns="http://www.w3.org/2000/svg"><path d="M152.531 179.476c-1.48 0-2.95-.438-4.211-1.293l-47.641-32.316-25.552 18.386a7.502 7.502 0 01-11.633-4.174l-12.83-48.622L4.821 93.928a7.501 7.501 0 01-.094-13.975l174.312-69.36a7.503 7.503 0 0110.282 8.408L159.898 173.38a7.499 7.499 0 01-7.367 6.096zm-47.669-48.897l42.437 28.785L170.193 39.24l-82.687 79.566 17.156 11.638c.069.043.135.089.2.135zm-35.327-6.401l5.682 21.53 12.242-8.809-16.03-10.874a7.478 7.478 0 01-1.894-1.847zM28.136 86.782l31.478 12.035a7.5 7.5 0 014.573 5.092l3.992 15.129a7.504 7.504 0 012.259-4.624L149.227 38.6 28.136 86.782z"/></symbol></svg>